<mxfile host="app.diagrams.net" modified="2023-05-30T03:24:13.478Z" agent="Mozilla/5.0 (Windows NT 10.0; Win64; x64) AppleWebKit/537.36 (KHTML, like Gecko) Chrome/112.0.0.0 Safari/537.36" version="21.1.8" etag="H2cQSg_IJzBMyE1dCh_D" type="github">
  <diagram name="第 1 页" id="nQFAYqQOxhHWzTsaoCwo">
    <mxGraphModel>
      <root>
        <mxCell id="0" />
        <mxCell id="1" parent="0" />
      </root>
    </mxGraphModel>
  </diagram>
</mxfile>
